M48
VER,1
FMAT,2
INCH,LZ
ICI,OFF
DETECT,ON
ATC,ON
T01C.012
T02C.032
T03C.036
T04C.038
T05C.04
T06C.044
T07C.048
T08C.052
T09C.071
%
T01
X052Y00335
X0535Y003275
X05575Y003275
X06Y00365
X0247Y0041
X0263Y004418
X026904Y004404
X02755Y004339
X0292Y00445
X029848Y00435
X030525Y004412
X035093Y004425
X0356Y004425
X043012Y0044
X043602Y004375
X05128Y004375
X059252Y00435
X03885Y00475
X04975Y004475
X05455Y00455
X056772Y0048
X05874Y00495
X0605Y0045
X04465Y0054
X051325Y0054
X052975Y00525
X05755Y0055
X058346Y005375
X0275Y006
X028925Y005975
X0306Y005975
X041375Y00585
X054016Y005575
X0549Y005575
X057953Y005725
X059134Y005675
X0425Y0063
X04325Y00605
X0491Y006275
X02475Y007
X0605Y0075
X032075Y007675
X041513Y007988
X06Y008075
X01659Y00865
X01741Y00865
X024025Y008375
X02525Y0083
X02615Y00835
X0268Y00835
X04075Y0082
X013525Y0087
X013025Y0088
X014363Y008988
X025825Y008725
X025375Y008725
X026475Y00875
X027125Y008775
X02785Y00875
X0285Y008775
X03884Y009175
X03975Y008925
X053775Y00875
X05675Y0087
X007825Y009225
X0275Y0093
X028175Y009325
X028875Y00935
X03125Y0093
X036Y00969
X041275Y0095
X04685Y00955
X04625Y00955
X047525Y009575
X0587Y00975
X014875Y0105
X035175Y01045
X05335Y010725
X05475Y010725
X055613Y010713
X05625Y01075
X056775Y01075
X007975Y011125
X01825Y011096
X020275Y01095
X030575Y011
X037775Y011175
X0505Y0108
X0623Y0112
X06925Y010875
X02115Y0117
X01565Y01225
X0171Y0121
X003Y012573
X010175Y01275
X014925Y012625
X016575Y0124
X025025Y0128
X026025Y012525
X02745Y0125
X0285Y012525
X028Y0125
X02905Y012525
X05965Y012775
X00775Y013
X0112Y012975
X0117Y01315
X0165Y01322
X018348Y01325
X020513Y013363
X0213Y013375
X023525Y013375
X06625Y0131
X06725Y01305
X010225Y01375
X011788Y013613
X024275Y0135
X02675Y0135
X04575Y01365
X04775Y01365
X048775Y013575
X05725Y0135
X00395Y0141
X02345Y01415
X06825Y01395
X00745Y014675
X008Y014675
X0101Y0146
X0118Y01475
X013463Y014563
X015199Y014625
X015925Y0148
X021025Y014675
X021625Y014825
X024275Y0145
X028519Y014544
X032205Y014875
X033465Y014875
X038288Y014738
X043177Y01475
X0595Y01475
X003975Y015425
X014725Y01545
X0154Y015075
X01645Y0154
X01885Y015175
X0211Y015325
X020375Y01535
X020711Y015
X023525Y015125
X0242Y01545
X024925Y015475
X029175Y0153
X03126Y0152
X03378Y0153
X03665Y01535
X047075Y015125
X05945Y015275
X01055Y0158
X01555Y015775
X0185Y01565
X018925Y015775
X023525Y0156
X032835Y015625
X034094Y01595
X035669Y015675
X0423Y015875
X04625Y01555
X048025Y016
X059775Y0156
X06075Y0159
X069925Y015975
X003925Y016152
X00775Y0163
X0118Y0164
X016125Y0161
X018975Y0165
X02165Y016225
X0303Y01635
X0319Y016075
X03252Y0161
X03315Y01645
X03725Y01625
X043348Y016025
X042758Y01615
X0451Y0161
X06925Y016425
X003925Y0169
X01475Y016774
X015275Y016625
X016125Y0167
X0175Y0166
X018175Y01695
X021725Y016774
X035Y016975
X05065Y017
X01075Y01725
X011477Y017548
X01525Y017075
X016975Y01725
X01745Y017075
X03255Y0174
X0335Y017125
X039225Y01735
X042625Y017575
X064475Y0175
X000875Y017648
X004Y0177
X0079Y01785
X013425Y018075
X021425Y01805
X024763Y01785
X033225Y017625
X034888Y017963
X04Y0176
X041675Y01795
X043025Y017925
X047075Y018
X050625Y017975
X007888Y018363
X011525Y01825
X0147Y018348
X015388Y018213
X016925Y018575
X01775Y0183
X018913Y018163
X0218Y0183
X034625Y018375
X036Y0182
X04335Y01835
X0682Y0184
X009025Y019075
X01795Y01885
X021125Y019125
X021675Y018975
X0247Y01875
X036475Y01905
X03905Y01915
X0395Y01905
X043075Y0188
X00965Y01945
X0102Y0194
X0147Y0196
X0154Y0193
X016075Y019475
X016963Y019388
X02075Y019525
X0296Y019275
X0351Y0192
X035625Y019275
X042Y01965
X0532Y01945
X015425Y020075
X017575Y019825
X019238Y019713
X0201Y02015
X021263Y019913
X02505Y019975
X041675Y020083
X00765Y020475
X017025Y020625
X0197Y0205
X020275Y02065
X02095Y02025
X021275Y0206
X03385Y020575
X06625Y0206
X06725Y02055
X074Y0205
X0108Y020825
X0168Y02105
X019575Y021125
X02185Y02085
X021475Y02115
X034375Y020925
X03885Y020925
X000875Y021388
X00395Y021388
X019813Y021513
X0325Y021375
X03865Y021425
X0615Y0215
X068238Y021463
X012575Y021875
X021498Y02185
X0234Y022125
X03975Y0219
X041775Y0219
X042075Y02225
X043348Y0219
X04885Y0222
X00925Y0225
X01245Y022675
X01295Y02255
X014375Y022525
X0402Y022425
X040775Y022825
X043675Y022525
X0443Y0228
X0084Y02305
X014537Y023238
X024565Y02301
X0293Y023079
X041775Y023125
X041175Y02325
X043742Y02325
X02105Y023625
X021593Y0239
X011825Y0243
X02205Y02395
X02465Y024175
X026225Y024325
X037375Y02415
X04875Y024225
X06925Y024025
X01375Y02465
X016138Y024488
X0258Y024475
X0401Y024823
X074Y0245
X02325Y025375
X039925Y0253
X041577Y02505
X042Y02545
X042375Y02515
X04315Y0252
X044136Y02545
X04453Y025075
X04585Y025
X022125Y025675
X025898Y025825
X043525Y0257
X042825Y025525
X06825Y025975
X069925Y02565
X024475Y0265
X025175Y026275
X024725Y026125
X025675Y026213
X040075Y026427
X046125Y0262
X022525Y0267
X023725Y027
X024125Y0268
X040986Y0266
X043075Y02785
X0438Y028025
X045514Y027875
X06625Y028
X06725Y028
X06825Y02795
X020325Y02855
X020788Y028538
X042025Y028125
X043375Y028275
X04453Y02815
X06445Y028225
X06875Y028225
X074Y0285
X025259Y029141
X027157Y02915
X0615Y028825
X017725Y0293
X01815Y0296
X0202Y0294
X021138Y029388
X020688Y029413
X021613Y029338
X018613Y03015
X0419Y03
X042364Y029725
X023325Y030625
X024625Y030662
X026175Y030575
X027088Y030413
X029036Y030386
X0148Y0311
X018225Y0308
X019675Y03115
X024938Y031138
X06075Y031225
X018325Y0314
X018775Y031675
X0192Y03135
X032323Y031375
X051525Y0317
X05475Y0317
X06445Y03135
X06925Y031475
X0125Y03225
X01325Y03225
X014Y03225
X015375Y03225
X01475Y03225
X0259Y031975
X025425Y0322
X041375Y031975
X044125Y03195
X017925Y032825
X02495Y032525
X0417Y0324
X042025Y0328
X044125Y0324
X002675Y03285
X0125Y033
X01325Y033
X014Y033
X015375Y033
X01475Y033
X017275Y033075
X021688Y033163
X03655Y0332
X038325Y032975
X042025Y03335
X042675Y03335
X044136Y03285
X053925Y033275
X015375Y03375
X01475Y03375
X025675Y03385
X0262Y03385
X027425Y033825
X037375Y033525
X038375Y033525
X037875Y03355
X06825Y033375
X023475Y034275
X041025Y03435
X04485Y03435
X057275Y03412
X015375Y0345
X01475Y0345
X02162Y034575
X05375Y03475
X015375Y03525
X01475Y03525
X05375Y0354
X024375Y035825
X0251Y0357
X0257Y035525
X026175Y035575
X026625Y03585
X027275Y0356
X0282Y03555
X030375Y03555
X060225Y0358
X015375Y036
X01475Y036
X017486Y0362
X01805Y03625
X018864Y03625
X019775Y03625
X020636Y03625
X023625Y036225
X024125Y0362
X025425Y0364
X0259Y0365
X02705Y036125
X0481Y03635
X0506Y0363
X05135Y036
X05275Y036
X074Y036
X0125Y03675
X01325Y03675
X014Y03675
X015375Y03675
X01475Y03675
X023325Y0366
X023063Y036963
X024775Y03665
X026025Y036975
X0265Y03695
X02705Y036975
X02995Y036975
X052175Y0367
X052825Y0368
X058775Y036825
X0681Y037
X01325Y037375
X014Y037375
X015375Y037375
X01475Y037375
X0178Y037525
X02705Y037475
X02755Y0375
X0283Y037525
X028975Y037525
X029625Y03755
X035325Y037425
X070187Y03725
X0213Y0376
X027525Y037975
X0283Y038
X028975Y038
X029625Y038
X043575Y03775
X052475Y037598
X071525Y0378
X01325Y0382
X013825Y038125
X0318Y0384
X049825Y038225
X017725Y038725
X0172Y038625
X01965Y038625
X052475Y039134
X013775Y039525
X014988Y039288
X015725Y039575
X01675Y0396
X016225Y0396
X017225Y039575
X018325Y039175
X018Y039625
X0195Y03965
X01875Y03965
X019975Y039175
X02085Y0396
X021075Y0392
X020625Y039175
X029125Y03965
X04095Y03957
X01355Y04015
X020063Y039713
X02175Y039725
X0231Y039725
X026375Y039675
X027625Y039675
X028375Y039675
X029875Y039675
X01335Y040575
X03775Y0405
X051375Y0405
X05275Y0405
X07185Y04025
X01295Y0409
X069625Y041
X0704Y041
X07265Y04075
X051775Y04135
X058734Y04175
X0085Y0422
X03465Y0421
X051075Y0421
X051425Y041775
X03575Y0426
X050275Y0425
X05075Y042425
X06875Y04235
X0195Y0433
X0654Y043
X016778Y04355
X018375Y043575
X019975Y043375
X021025Y04355
X020475Y043525
X074Y0435
X03635Y04415
X0383Y0442
X021625Y0445
X066Y04485
X068Y04485
X071475Y04475
X072175Y04475
X015Y04535
X0225Y045375
X046Y04495
X052725Y045675
X04Y04605
X00775Y04675
X00975Y04675
X0125Y04675
X025Y04675
X0415Y04675
X05025Y04675
X0125Y037375
X01175Y037375
X006875Y037625
X007875Y037875
X00775Y035625
X0115Y033
X012Y02925
X012Y029875
X01125Y029875
X01125Y02925
X006375Y0245
X007375Y025625
X01175Y02115
X00975Y02095
X01245Y0275
X00825Y027
X00885Y0402
X0555Y02575
X05545Y0184
X054Y0184
X0608Y01865
X0607Y02575
X0615Y0142
X0321Y0058
X03435Y0055
X034Y006
X03325Y0075
X0325Y0075
X0315Y0075
X026625Y00605
X035125Y00605
X042421Y00125
X037598Y00125
X0363Y0056
X04725Y00765
X04625Y0077
X050866Y00565
X05285Y00575
X052525Y00455
X0563Y00525
X058622Y0107
X05825Y01135
X0585Y01265
X057Y01265
X0582Y01305
X054Y01265
X0525Y01265
X051Y01265
X0555Y01265
X042167Y023675
X042758Y023675
X040975Y026073
X04355Y0266
X044333Y0266
X04145Y029675
X043545Y03
X04455Y029675
X045125Y029675
X04155Y0266
X04512Y0249
X044333Y023675
X0413Y0376
X045225Y0376
X0426Y038052
X0442Y03765
X036375Y037425
X037875Y037425
X038375Y037425
X038875Y037425
X039375Y037425
X035825Y037425
X036875Y037425
X029875Y035475
X017575Y034325
X017575Y034825
X01847Y034825
X019425Y034325
X019258Y034825
X020225Y034825
X02103Y03482
X00215Y0085
X072913Y008504
X006693Y046732
X006299Y042163
X0225Y03975
X02365Y0397
X02415Y0397
X0249Y0397
X0237Y03845
X0081Y01985
X01025Y018
X01175Y02185
X01335Y0201
X01335Y019407
X01175Y0205
X0117Y01935
X011125Y015
X008533Y014618
X00675Y01355
X012675Y012325
X01566Y0086
X017Y0134
X019476Y013426
X0195Y0117
X0226Y01225
X022125Y01335
X02045Y00865
X0251Y0218
X0251Y021318
X02345Y0206
X0234Y02105
X02465Y016375
X0221Y014037
X01615Y0218
X01525Y0218
X0161Y019
X01445Y02205
X0271Y01795
X0289Y0178
X029025Y014425
X0305Y01255
X03065Y00525
X03895Y0187
X03725Y019
X0386Y0181
X0391Y0165
X039Y0147
X05375Y03225
X029125Y03585
X02565Y0397
X0338Y04055
X0197Y0256
X02065Y0257
X02125Y025675
X0229Y0261
X0171Y0274
X0169Y028175
X022525Y037075
X0222Y037475
X02175Y03755
X00975Y0422
X0514Y010725
X0506Y015
X0192Y028175
X02Y028175
X055575Y04525
X057425Y04525
X057425Y044675
X054975Y044427
X0216Y043825
X019875Y0445
X050513Y037213
X0353Y01745
X035125Y046025
X0234Y016425
X023125Y017875
X0195Y015125
X01965Y014675
X0199Y015325
X01725Y0218
X0179Y0218
X020175Y0218
X021925Y02305
X014475Y014475
X01535Y04125
X074Y031325
X00075Y046625
X00075Y04425
X00075Y043125
X00075Y041
X00075Y028
X00075Y026
X00075Y02
X00075Y0125
X00075Y0105
X023625Y0045
X023625Y003125
X023625Y000625
X0275Y000625
X031Y000625
X035Y000625
X039Y000625
X0425Y000625
X0465Y000625
X0505Y000625
X0545Y000625
X0585Y000625
X074Y014625
X074Y0165
X074Y041625
X058625Y04675
X0605Y04675
X0625Y04675
X0645Y04675
X069Y04675
X071Y04675
X0725Y04675
X01955Y028875
X02765Y02425
X0197Y0232
X019875Y02365
X020375Y023525
X020675Y023925
X05165Y037598
X018288Y037488
X06075Y0233
X029362Y0309
X02845Y030375
X028125Y030925
X027787Y0304
X027472Y031575
X022525Y023975
X0231Y018742
X013425Y018545
X01545Y010425
X043152Y0297
X04955Y00935
X049825Y008175
X050325Y0087
X051425Y008775
X06955Y0423
X024525Y033825
X025138Y033913
X024025Y035475
X020125Y025925
X02855Y036025
X028063Y036088
X02755Y036125
X072875Y0364
X073025Y04135
X0353Y02825
X03865Y005575
X037425Y0093
X03055Y017375
X02975Y017925
X02995Y00935
X0404Y02028
X04Y016875
X040375Y0173
T02
X005862Y016961
X005862Y017961
X005862Y018961
X005862Y019961
X005862Y020961
X005862Y021961
X005862Y022961
X005862Y023961
X006862Y023961
X006862Y022961
X006862Y021961
X006862Y020961
X006862Y019961
X006862Y018961
X006862Y017961
X006862Y016961
T03
X0575Y04175
X0575Y04275
X0565Y04175
X0565Y04275
X0555Y04175
X0555Y04275
X0545Y04175
X0545Y04275
X0535Y04175
X0535Y04275
X025Y04175
X025Y04275
X024Y04175
X024Y04275
X023Y04175
X023Y04275
X022Y04175
X022Y04275
X021Y04175
X021Y04275
X02Y04175
X02Y04275
X019Y04175
X019Y04275
X018Y04175
X018Y04275
X017Y04175
X017Y04275
X016Y04175
X016Y04275
X015Y04175
X015Y04275
X014Y04175
X014Y04275
X013Y04175
X013Y04275
T04
X06525Y030275
X06625Y030275
X06725Y030275
X06825Y030275
X06525Y023725
X06625Y023725
X06725Y023725
X06825Y023725
X0565Y028525
X0555Y028525
X0545Y028525
X0535Y028525
X0565Y021975
X0555Y021975
X0545Y021975
X0535Y021975
X06525Y015275
X06625Y015275
X06725Y015275
X06825Y015275
X06525Y008725
X06625Y008725
X06725Y008725
X06825Y008725
X0565Y021025
X0555Y021025
X0545Y021025
X0535Y021025
X0565Y014475
X0555Y014475
X0545Y014475
X0535Y014475
X001375Y03975
X006091Y046375
X004909Y041375
X015875Y0275
X02575Y0155
X02575Y0165
X02575Y0175
X0025Y042814
X0025Y041436
X00275Y03675
X00275Y03775
X07313Y042441
X071555Y042441
X06525Y022775
X06625Y022775
X06725Y022775
X06825Y022775
X06525Y016225
X06625Y016225
X06725Y016225
X06825Y016225
T05
X05575Y038
X05575Y035
T06
X034Y02975
X033Y02975
X032Y02975
X032Y0245
X033Y0245
X034Y0245
T07
X047244Y005906
X046244Y005906
T08
X00975Y025125
X00975Y038125
T09
X052047Y029079
X057953Y029079
X057953Y013921
X052047Y013921
X062931Y029126
X070569Y029126
X070569Y009874
X062931Y009874
X039299Y031171
X033Y027825
X026701Y031171
X033Y034518
X026701Y023079
X033Y026425
X039299Y023079
X033Y019732
M30
