M48
VER,1
FMAT,2
INCH,LZ
ICI,OFF
DETECT,ON
ATC,ON
T01C.0315
T02C.04724
T03C.05315
T04C.099
T05C.118
T06C.126
T07C.138
T08C.236
%
T01
X029961Y01315
T02
X037913Y01315
T03
X002205Y014646
X002205Y014752
X002205Y014858
X002205Y014964
X002205Y01507
X002205Y015176
X002205Y015282
X002205Y015388
X002205Y015494
X002205Y0156
X002205Y015705
X002205Y015811
X002205Y015917
X002205Y016023
X002205Y016129
X002205Y016235
X002205Y016341
X002205Y016447
X002205Y016553
X002205Y016659
X002205Y016765
X002205Y016871
X002205Y016977
X002205Y017083
X002205Y017189
X002205Y017295
X002205Y017401
X002205Y017507
X002205Y017613
X002205Y017719
X002205Y017825
X002205Y017931
X002205Y018037
X002205Y018143
X002205Y018249
X002205Y018355
X002205Y018461
X002205Y018567
X002205Y018673
X002205Y018779
X002205Y018885
X002205Y018991
X002205Y019097
X002205Y019203
X002205Y019309
X002205Y019415
X002205Y019521
X002205Y019627
X002205Y019733
X002205Y019839
X002205Y019945
X002205Y020051
X002205Y020157
X002205Y020263
X002205Y020369
X002205Y020475
X002205Y020581
X002205Y020687
X002205Y020793
X002205Y020899
X002205Y021005
X002205Y021111
X002205Y021216
X002205Y021322
X002205Y021428
X002205Y021534
X002205Y02164
X002205Y021746
X002205Y021852
X002205Y021958
X002205Y022064
X002205Y02217
X002205Y022276
X002205Y022382
X002205Y022488
X002205Y022594
X002205Y0227
X002205Y022806
X002205Y022912
X002205Y023018
X002205Y023124
X002205Y02323
X002205Y023336
X002205Y023442
X002205Y023548
X002205Y023654
X002205Y02376
X002205Y023866
X002205Y023972
X002205Y024078
X002205Y024184
X002205Y02429
X002205Y024396
X002205Y024502
X002205Y024608
X002205Y024714
X002205Y02482
X002205Y024926
X002205Y025032
X002205Y025138
T04
X03495Y03262
X02945Y03262
X03105Y02163
X03655Y02163
T05
X073425Y032677
X07126Y032677
T06
X005512Y014961
X005512Y025961
T07
X011102Y010512
X043386Y010512
X006181Y039567
X060748Y039567
X060748Y010512
X006181Y010512
X003937Y034134
X062992Y033425
X037402Y007441
X043386Y039646
X011102Y039646
T08
X062992Y044094
M30
